<svg width="62" height="62" viewBox="0 0 62 62" fill="none" xmlns="http://www.w3.org/2000/svg">
<path d="M13.4514 45.3389L13.4516 45.3391L13.4595 45.3307C13.8382 44.9267 14.3478 44.74 14.995 44.74C15.6328 44.74 16.1533 44.9504 16.571 45.3421C16.9838 45.729 17.1908 46.215 17.1908 46.8193C17.1908 47.457 16.9802 48.0359 16.5599 48.5113L12.4417 52.6295C11.881 53.064 11.3407 53.2661 10.8168 53.2661C10.2929 53.2661 9.75274 53.0641 9.1922 52.6298C8.78234 52.2147 8.57732 51.7005 8.57732 51.0995C8.57732 50.4986 8.7827 49.9748 9.18085 49.4933L13.4514 45.3389ZM16.5628 13.4514L16.5626 13.4516L16.571 13.4595C16.9803 13.8432 17.1908 14.3564 17.1908 14.995C17.1908 15.632 16.9811 16.1493 16.5652 16.5652C16.1493 16.9811 15.632 17.1908 14.995 17.1908C14.3564 17.1908 13.8432 16.9803 13.4595 16.571L13.4597 16.5708L13.4521 16.5634L9.20289 12.4016C9.20259 12.4013 9.2023 12.401 9.202 12.4007C8.78874 11.9869 8.57732 11.4419 8.57732 10.8022C8.57732 10.2042 8.78082 9.68239 9.17537 9.20269C9.71229 8.7516 10.2625 8.5482 10.8605 8.5482C11.4331 8.5482 11.9534 8.75381 12.403 9.17534L16.5628 13.4514ZM41.4579 20.4108L41.4598 20.4127C42.8049 21.7579 43.8643 23.3321 44.6382 25.1665C45.4115 26.9996 45.8123 28.9465 45.8123 30.9508C45.8123 33.6448 45.1537 36.134 43.8086 38.4236C42.4617 40.7162 40.658 42.5199 38.3654 43.8668C36.0758 45.212 33.5866 45.8705 30.8926 45.8705C28.1986 45.8705 25.7095 45.212 23.4198 43.8668C21.1281 42.5204 19.3249 40.7176 17.9782 38.4262C16.6883 36.1036 16.002 33.6128 16.002 30.9217C16.002 28.2571 16.6605 25.7679 18.0057 23.4781C19.3532 21.1845 21.1571 19.3525 23.4769 18.0064C25.7971 16.6601 28.2579 16.002 30.9217 16.002C32.925 16.002 34.8419 16.4024 36.7036 17.2042C38.5417 18.0084 40.1442 19.0685 41.4579 20.4108ZM38.4067 23.5532L38.4054 23.5519C36.3493 21.5255 33.8695 20.5101 30.9508 20.5101C28.0616 20.5101 25.5812 21.5254 23.5538 23.5526C21.4686 25.6082 20.4518 28.0596 20.4518 30.9217C20.4518 33.8403 21.4673 36.3206 23.5234 38.377C25.5502 40.4332 28.0307 41.479 30.9508 41.479C33.8715 41.479 36.3515 40.4328 38.4067 38.3776C40.462 36.3224 41.5081 33.8424 41.5081 30.9217C41.5081 28.0577 40.4608 25.6073 38.4067 23.5532ZM29.3568 61.0024L29.3569 61.0023L29.3515 60.997C28.907 60.5525 28.6968 60.0063 28.6968 59.3685V53.5744C28.6968 52.9383 28.9056 52.424 29.3461 52.0094C29.7955 51.5865 30.3168 51.3786 30.9217 51.3786C31.5618 51.3786 32.1072 51.5903 32.5211 52.0041C32.937 52.4201 33.1466 52.9374 33.1466 53.5744V59.3685C33.1466 60.0063 32.9365 60.5525 32.4919 60.997C32.0442 61.4447 31.5256 61.6517 30.9217 61.6517C30.3132 61.6517 29.7703 61.4418 29.3568 61.0024ZM45.3594 45.3716L45.3655 45.3659L45.3712 45.3598C45.7539 44.9516 46.2373 44.7691 46.8193 44.7691C47.4562 44.7691 47.9761 44.9789 48.3935 45.3695C48.3941 45.37 48.3947 45.3706 48.3953 45.3712L52.6387 49.5274C53.0573 49.9739 53.2661 50.5222 53.2661 51.1286C53.2661 51.7294 53.0612 52.2435 52.6516 52.6586C52.1058 53.0783 51.58 53.2734 51.0703 53.2734C50.5606 53.2734 50.0347 53.0783 49.4888 52.6584L45.3738 48.5433C44.9793 48.0665 44.7691 47.5142 44.7691 46.8193C44.7691 46.2123 44.978 45.7276 45.3594 45.3716ZM45.3594 13.489L45.3596 13.4892L45.3686 13.4799L49.499 9.20416C49.9485 8.78283 50.4688 8.57732 51.0412 8.57732C51.6772 8.57732 52.1916 8.7861 52.6062 9.22657L52.6061 9.22665L52.6114 9.23201C53.0592 9.67973 53.2661 10.1983 53.2661 10.8022C53.2661 11.4726 53.0537 12.0171 52.6414 12.4298C52.6411 12.4301 52.6408 12.4304 52.6406 12.4307L48.3958 16.5882C47.914 17.0149 47.3909 17.2199 46.8193 17.2199C46.2185 17.2199 45.7605 17.0154 45.3712 16.6001C44.9796 16.1824 44.7691 15.6619 44.7691 15.0241C44.7691 14.3519 44.9825 13.8408 45.3594 13.489ZM0.25 30.9217C0.25 30.2853 0.459326 29.74 0.90201 29.296C1.34977 28.8758 1.89873 28.6677 2.4749 28.6677H8.41467C9.01517 28.6677 9.50135 28.8721 9.91863 29.314C10.3143 29.7638 10.5231 30.2867 10.5231 30.9217C10.5231 31.5661 10.3375 32.0877 9.94508 32.5324C9.56137 32.9673 9.05062 33.1757 8.44378 33.1757H2.50402C1.90012 33.1757 1.38153 32.9688 0.933806 32.521C0.481769 32.069 0.25 31.5488 0.25 30.9217ZM28.6968 8.44378V2.50402C28.6968 1.90011 28.9038 1.38153 29.3515 0.933807C29.8035 0.481769 30.3237 0.25 30.9508 0.25C31.5823 0.25 32.0722 0.455827 32.5211 0.904689C32.9688 1.35241 33.1757 1.871 33.1757 2.4749V8.44378C33.1757 9.04561 32.9705 9.5326 32.5265 9.95049C32.0827 10.3682 31.5637 10.5522 30.9508 10.5522C30.3407 10.5522 29.7915 10.3408 29.3748 9.95016C28.953 9.55465 28.6968 9.03603 28.6968 8.44378ZM51.3495 30.9217C51.3495 30.2897 51.5562 29.7673 51.9802 29.2881C52.3995 28.8711 52.8881 28.6677 53.4579 28.6677H59.3394C59.9359 28.6677 60.4564 28.8983 60.9096 29.3515C61.3629 29.8048 61.5934 30.3253 61.5934 30.9217C61.5934 31.5182 61.3629 32.0387 60.9096 32.4919C60.4619 32.9397 59.9433 33.1466 59.3394 33.1466H53.4579C52.8511 33.1466 52.3403 32.9382 51.9566 32.5033C51.5572 32.0506 51.3495 31.5552 51.3495 30.9217Z" fill="#FF8C00" stroke="black" stroke-width="0.5"/>
</svg>
